{"title":"Turbo 2013 V2 HDCAM XViD UNiQUE","uid":8964596,"size":1485797394,"categoryP":"video","categoryS":"movies","magnet":"?xt=urn:btih:5349fcb24f43505a4e2e188bf962b31cc35ec03f&amp;dn=Turbo+2013+V2+HDCAM+XViD+UNiQUE&amp;tr=udp%3A%2F%2Ftracker.openbittorrent.com%3A80&amp;tr=udp%3A%2F%2Fopen.demonii.com%3A1337&amp;tr=udp%3A%2F%2Ftracker.coppersurfer.tk%3A6969&amp;tr=udp%3A%2F%2Fexodus.desync.com%3A6969","seeders":1,"leechers":0,"uploader":"xxxlavalxxx","files":-1,"time":1380187921,"description":" &lt;a href=&quot;\nhttp://www.imdb.com/title/tt1860353/&quot; rel=&quot;nofollow&quot; target=&quot;_NEW&quot;&gt;\nhttp://www.imdb.com/title/tt1860353/&lt;/a&gt;\n\n\n\nFrom the makers of MADAGASCAR and KUNG FU PANDA, TURBO is a high-velocity 3D comedy about a snail who dares to dream big - and fast. After a freak accident infuses him with the power of super-speed, Turbo kicks into overdrive and embarks on an extraordinary journey to achieve the seemingly impossible: competing in the world's fastest race, the Indianapolis 500. With the help of his tricked-out streetwise snail crew, this ultimate underdog puts his heart and shell on the line to prove that no dream is too big, and no dreamer too small.  \n\n\n\nDirector:\n David Soren \n\nWriters:\n Darren Lemke (screenplay), Robert D. Siegel (screenplay)\n\nStars:\n Ryan Reynolds, Paul Giamatti, Maya Rudolph\n\nGenres:\n  Animation |  Adventure |  Comedy |  Family |  Sport \n\nCountry:\n USA \n\nLanguage:\n English \n\n\nFormat: AVI\n Format/Info: Audio Video Interleave\n File size: 1.37 GiB\n Duration: 1h 40mn\n Overall bit rate: 1 956 Kbps\n Writing application: VirtualDubMod 1.5.10.2 (build 2540/release)\n Writing library: VirtualDubMod build 2540/release\n\n Video\n ID: 0\n Format: MPEG-4 Visual\n Format profile: Advanced Simple@L5\n Format settings, BVOP: 2\n Format settings, QPel: No\n Format settings, GMC: No warppoints\n Format settings, Matrix: Default (H.263)\n Muxing mode: Packed bitstream\n Codec ID: XVID\n Codec ID/Hint: XviD\n Duration: 1h 40mn\n Bit rate: 1 823 Kbps\n Width: 720 pixels\n Height: 304 pixels\n Display aspect ratio: 2.35:1\n Frame rate: 29.970 fps\n Color space: YUV\n Chroma subsampling: 4:2:0\n Bit depth: 8 bits\n Scan type: Progressive\n Compression mode: Lossy\n Bits/(Pixel*Frame): 0.278\n Stream size: 1.27 GiB (93%)\n Writing library: XviD 64\n\n Audio\n ID: 1\n Format: MPEG Audio\n Format version: Version 1\n Format profile: Layer 3\n Codec ID: 55\n Codec ID/Hint: MP3\n Duration: 1h 35mn\n Bit rate mode: Constant\n Bit rate: 128 Kbps\n Channel(s): 2 channels\n Sampling rate: 48.0 KHz\n Compression mode: Lossy\n Stream size: 87.5 MiB (6%)\n Alignment: Split accross interleaves\n Interleave, duration: 35 ms (1.05 video frame)\n Interleave, preload duration: 500 ms \n\n\nSource Used SmY - Thanks\n\n\n &lt;a href=&quot;\nhttp://bayimg.com/haaoBaAFA&quot; rel=&quot;nofollow&quot; target=&quot;_NEW&quot;&gt;\nhttp://bayimg.com/haaoBaAFA&lt;/a&gt; &lt;a href=&quot;\nhttp://bayimg.com/haAocAAFa&quot; rel=&quot;nofollow&quot; target=&quot;_NEW&quot;&gt;\nhttp://bayimg.com/haAocAAFa&lt;/a&gt;","torrent":{"xt":"urn:btih:5349fcb24f43505a4e2e188bf962b31cc35ec03f","amp;dn":"Turbo+2013+V2+HDCAM+XViD+UNiQUE","amp;tr":["udp%3A%2F%2Ftracker.openbittorrent.com%3A80","udp%3A%2F%2Fopen.demonii.com%3A1337","udp%3A%2F%2Ftracker.coppersurfer.tk%3A6969","udp%3A%2F%2Fexodus.desync.com%3A6969"],"infoHash":"5349fcb24f43505a4e2e188bf962b31cc35ec03f","infoHashBuffer":{"type":"Buffer","data":[83,73,252,178,79,67,80,90,78,46,24,139,249,98,179,28,195,94,192,63]},"announce":[],"urlList":[]}}